<?xml version="1.0" standalone="no"?>
<!DOCTYPE svg PUBLIC "-//W3C//DTD SVG 20010904//EN"
 "http://www.w3.org/TR/2001/REC-SVG-20010904/DTD/svg10.dtd">
<svg version="1.0" xmlns="http://www.w3.org/2000/svg"
 width="485.000000pt" height="435.000000pt" viewBox="0 0 485.000000 435.000000"
 preserveAspectRatio="xMidYMid meet">

<g transform="translate(0.000000,435.000000) scale(0.100000,-0.100000)"
fill="#000000" stroke="none">
<path d="M1330 4313 c-89 -25 -146 -60 -216 -135 -100 -108 -158 -259 -173
-450 -14 -177 16 -465 60 -587 11 -29 22 -79 26 -110 l5 -57 -68 -19 c-222
-59 -481 -171 -620 -267 -265 -182 -371 -422 -296 -663 78 -254 409 -483 882
-613 l100 -27 0 -36 c0 -19 -13 -89 -30 -155 -43 -176 -61 -311 -61 -474 -1
-347 97 -545 324 -657 284 -140 652 -2 1072 400 l100 96 105 -103 c271 -264
611 -446 834 -446 130 0 272 59 367 152 67 66 129 182 155 293 47 201 30 516
-42 763 -40 140 -45 131 104 181 432 142 714 332 821 553 163 336 -27 659
-514 872 -95 42 -301 113 -394 136 l-44 11 6 60 c4 32 16 86 27 118 60 179 80
525 41 709 -64 301 -270 464 -571 449 -167 -7 -310 -61 -496 -185 -99 -67
-283 -222 -357 -301 l-49 -52 -132 128 c-220 214 -439 351 -651 410 -85 23
-240 26 -315 6z m282 -508 c69 -28 172 -94 258 -166 94 -78 240 -220 240 -233
0 -7 -16 -28 -36 -47 -19 -18 -72 -80 -116 -136 l-80 -102 -67 -6 c-36 -3
-115 -14 -176 -24 -60 -10 -113 -16 -118 -12 -18 17 -87 399 -94 521 -6 104 8
200 34 226 19 19 73 12 155 -21z m1817 -15 c17 -78 13 -223 -10 -345 -11 -60
-24 -140 -29 -176 -5 -37 -17 -97 -26 -134 -17 -67 -17 -67 -48 -61 -17 3 -92
13 -166 21 -74 9 -142 18 -151 21 -9 2 -36 33 -60 67 -23 34 -71 99 -105 143
l-63 82 112 109 c170 166 311 264 435 304 92 29 99 27 111 -31z m-1147 -938
c96 -26 148 -53 204 -104 83 -76 120 -195 103 -331 -16 -131 -99 -245 -224
-306 l-64 -32 34 -32 c19 -18 113 -149 210 -292 l176 -260 -131 -3 c-91 -2
-139 1 -158 10 -18 9 -79 92 -189 257 -88 134 -172 250 -185 257 -12 7 -53 13
-90 14 l-68 0 0 -270 0 -271 -132 3 -133 3 -3 680 c-1 374 0 686 3 694 4 11
56 12 288 9 246 -4 292 -8 359 -26z m888 -667 l0 -695 -130 0 -130 0 0 695 0
695 130 0 130 0 0 -695z m-1935 253 c18 -40 51 -116 73 -169 l39 -96 -67 -157
c-37 -87 -72 -162 -77 -167 -10 -10 -188 35 -318 81 -212 76 -375 184 -375
251 0 64 192 182 425 259 74 25 231 68 253 69 7 1 28 -32 47 -71z m2576 38
c221 -61 403 -145 489 -225 63 -59 65 -85 13 -137 -90 -86 -285 -175 -526
-239 -116 -31 -129 -32 -134 -17 -4 9 -33 77 -65 151 -33 74 -62 146 -64 161
-8 37 122 340 146 340 9 0 72 -15 141 -34z m-2097 -1216 c88 -11 160 -21 161
-23 20 -33 166 -231 188 -254 l30 -32 -44 -57 c-133 -173 -423 -377 -537 -378
-45 -1 -48 1 -66 38 -27 55 -32 203 -12 331 25 161 53 307 66 353 16 50 2 49
214 22z m1627 -50 c9 -36 24 -101 32 -145 9 -44 26 -125 37 -180 26 -120 26
-319 0 -350 -53 -63 -350 102 -579 323 -55 54 -82 86 -78 96 3 8 51 75 107
149 l100 134 93 7 c50 4 121 13 157 20 108 23 112 21 131 -54z"/>
<path d="M1900 2444 l0 -226 128 4 c114 3 134 6 184 31 93 46 138 141 117 250
-23 122 -108 167 -316 167 l-113 0 0 -226z"/>
</g>
</svg>
